<?xml version="1.0" encoding="UTF-8" standalone="no"?>
<svg width="170px" height="98px" viewBox="0 0 170 98" version="1.1" xmlns="http://www.w3.org/2000/svg" xmlns:xlink="http://www.w3.org/1999/xlink">
    <!-- Generator: Sketch 40.1 (33804) - http://www.bohemiancoding.com/sketch -->
    <title>Group Copy 2</title>
    <desc>Created with Sketch.</desc>
    <defs></defs>
    <g id="Home-page" stroke="none" stroke-width="1" fill="none" fill-rule="evenodd">
        <g id="Home-Page" transform="translate(-135.000000, -9008.000000)" fill="#666666">
            <g id="Group" transform="translate(0.000000, 8899.000000)">
                <g id="Group-Copy-2" transform="translate(135.000000, 109.000000)">
                    <path d="M14.2308991,92.8015522 L11.6374817,92.8015522 L11.6374817,86.4132621 L9.51217471,86.4132621 L9.51217471,94.6387411 L14.2308991,94.6387411 L14.2308991,92.8015522 L14.2308991,92.8015522 Z M16.1110709,94.117066 C16.1110709,95.3735481 15.6537829,95.8312151 14.6421491,95.5430925 C14.5816813,95.5310803 14.5320358,95.5120322 14.4734576,95.4859485 L13.9739108,97.2719996 C14.0866009,97.3279424 14.1987756,97.3725593 14.3191959,97.4204367 C16.6764108,98.2985327 18.2241813,96.994688 18.2241813,94.7085838 L18.2241813,86.4132621 L16.1110709,86.4132621 L16.1110709,94.117066 L16.1110709,94.117066 Z M38.5649086,91.4668188 L41.3237537,91.4668188 L41.3237537,89.7087391 L38.5649086,89.7087391 L38.5649086,88.2156155 L41.7679861,88.2156155 L41.7679861,86.4132621 L36.4617617,86.4132621 L36.4617617,94.6387411 L42.0488523,94.6387411 L42.0488523,92.8909577 L38.5649086,92.8909577 L38.5649086,91.4668188 L38.5649086,91.4668188 Z M45.8523136,91.4668188 L48.6061769,91.4668188 L48.6061769,89.7087391 L45.8523136,89.7087391 L45.8523136,88.2156155 L49.0533297,88.2156155 L49.0533297,86.4132621 L43.7453874,86.4132621 L43.7453874,94.6387411 L49.3362573,94.6387411 L49.3362573,92.8909577 L45.8523136,92.8909577 L45.8523136,91.4668188 L45.8523136,91.4668188 Z M2.9648136,86.4132621 L0.161304825,94.6387411 L2.27630482,94.6387411 L2.7528326,93.131546 L5.46014254,93.131546 L5.91914839,94.6387411 L8.16470395,94.6387411 L5.30278874,86.4132621 L2.9648136,86.4132621 L2.9648136,86.4132621 Z M3.34875,91.2557463 L4.12899123,88.646684 L4.90923246,91.2557463 L3.34875,91.2557463 L3.34875,91.2557463 Z M22.2820541,86.4132621 L19.4773428,94.6387411 L21.5935453,94.6387411 L22.070932,93.131546 L24.7770395,93.131546 L25.2379349,94.6387411 L27.4853801,94.6387411 L24.620201,86.4132621 L22.2820541,86.4132621 L22.2820541,86.4132621 Z M22.6694262,91.2557463 L23.4448575,88.646684 L24.2263012,91.2557463 L22.6694262,91.2557463 L22.6694262,91.2557463 Z M63.2498721,86.4132621 L60.9151608,86.4132621 L58.1059832,94.6387411 L60.2285417,94.6387411 L60.701462,93.131546 L63.4101462,93.131546 L63.8703545,94.6387411 L66.1157383,94.6387411 L63.2498721,86.4132621 L63.2498721,86.4132621 Z M61.3006433,91.2557463 L62.0791667,88.646684 L62.8597515,91.2557463 L61.3006433,91.2557463 L61.3006433,91.2557463 Z M56.3673611,91.6572989 C56.0579788,90.92764 55.9468348,90.7795461 55.6511952,90.6415767 C55.7008406,90.6295644 55.7503143,90.606398 55.7944627,90.5835747 C56.7135051,90.1597136 57.1577376,89.0985164 56.8071272,87.9202856 C56.5224817,86.9500384 55.7723026,86.4132621 54.3521674,86.4132621 L51.018019,86.4132621 L51.018019,94.6387411 L53.1321601,94.6387411 L53.1321601,91.5639465 L53.6169335,91.5639465 C53.9584393,91.5639465 54.1647515,91.7127269 54.3430629,92.1498014 L54.4552376,92.4104674 L54.5165643,92.5589046 L55.3150146,94.6387411 L57.5085197,94.6387411 L56.480223,91.9435338 C56.4417434,91.8388556 56.4123684,91.7506513 56.3673611,91.6572989 L56.3673611,91.6572989 Z M54.5974744,89.5084776 C54.4770541,89.6557136 54.3044115,89.7231538 53.90072,89.7619363 L53.0890424,89.7619363 L53.0890424,88.2156155 L53.7186294,88.2156155 C53.7684466,88.2156155 53.8179203,88.2269414 53.8692836,88.2269414 C54.1925804,88.2368944 54.3245102,88.2763632 54.4677778,88.3654255 C54.824057,88.5704919 54.9039364,89.1312927 54.5974744,89.5084776 L54.5974744,89.5084776 Z M34.6035782,88.5123183 L34.6035782,86.4132621 L28.9257858,86.4132621 L28.9257858,88.2156155 L31.844905,88.2156155 L28.8366301,92.5353949 L28.8366301,94.6387411 L34.6662792,94.6387411 L34.6662792,92.8223162 L31.6037208,92.8223162 L34.6035782,88.5123183 L34.6035782,88.5123183 Z" id="Fill-1"></path>
                    <polyline id="Fill-2" points="72.6627558 86.4132621 74.5879349 92.0669168 74.6107822 92.0669168 76.4320322 86.4132621 78.9795833 86.4132621 78.9795833 94.6347943 77.2851096 94.6347943 77.2851096 88.8083346 77.2620906 88.8083346 75.2448355 94.6347943 73.8501243 94.6347943 71.8330409 88.8658219 71.8098501 88.8658219 71.8098501 94.6347943 70.1155482 94.6347943 70.1155482 86.4132621 72.6627558 86.4132621"></polyline>
                    <polyline id="Fill-3" points="86.725307 86.4132621 86.725307 87.9331559 82.3800402 87.9331559 82.3800402 89.6950108 86.3679971 89.6950108 86.3679971 91.0997585 82.3800402 91.0997585 82.3800402 93.1147289 86.8177266 93.1147289 86.8177266 94.6347943 80.5701279 94.6347943 80.5701279 86.4132621 86.725307 86.4132621"></polyline>
                    <path d="M91.5897039,86.4132621 C92.1198282,86.4132621 92.6135344,86.4978627 93.0708224,86.6667207 C93.5279386,86.8355788 93.9238999,87.0888658 94.258019,87.4265818 C94.5923099,87.7644695 94.8535928,88.1864429 95.0420395,88.6931886 C95.2299708,89.1997626 95.32428,89.7947126 95.32428,90.4780384 C95.32428,91.0767636 95.2474927,91.6293275 95.0937463,92.1360731 C94.94,92.6426472 94.7075768,93.0802365 94.3964766,93.4486696 C94.0852047,93.8171027 93.6969737,94.1069413 93.2321272,94.3180139 C92.7671089,94.529258 92.2196345,94.6347943 91.5897039,94.6347943 L88.0394518,94.6347943 L88.0394518,86.4132621 L91.5897039,86.4132621 L91.5897039,86.4132621 Z M91.4629276,93.1147289 C91.7240387,93.1147289 91.9775914,93.072686 92.2235855,92.9880854 C92.4694079,92.903828 92.688432,92.7636278 92.8806579,92.567828 C93.072712,92.3721998 93.2264583,92.1170251 93.3417251,91.8021324 C93.456992,91.4874112 93.5145395,91.1037054 93.5145395,90.6506717 C93.5145395,90.2360772 93.4743421,89.8619812 93.3936038,89.5280404 C93.3128655,89.1940997 93.1804203,88.908208 92.9957529,88.6701937 C92.8114291,88.432351 92.5673246,88.2499363 92.2639547,88.1232928 C91.9602412,87.9966492 91.5855811,87.9331559 91.1401462,87.9331559 L89.8491923,87.9331559 L89.8491923,93.1147289 L91.4629276,93.1147289 L91.4629276,93.1147289 Z" id="Fill-4"></path>
                    <polygon id="Fill-5" points="96.5807054 86.4132621 98.3904459 86.4132621 98.3904459 94.6346227 96.5807054 94.6346227"></polygon>
                    <path d="M104.084386,86.4132621 L107.162061,94.6347943 L105.283264,94.6347943 L104.66072,92.8039546 L101.583216,92.8039546 L100.937654,94.6347943 L99.1164035,94.6347943 L102.228779,86.4132621 L104.084386,86.4132621 L104.084386,86.4132621 Z M104.188143,91.4566942 L103.150742,88.4399015 L103.127723,88.4399015 L102.055793,91.4566942 L104.188143,91.4566942 L104.188143,91.4566942 Z" id="Fill-6"></path>
                    <polyline id="Fill-7" points="112.879364 86.4132621 116.314349 91.9287759 116.337197 91.9287759 116.337197 86.4132621 118.03167 86.4132621 118.03167 94.6347943 116.22193 94.6347943 112.798626 89.1307779 112.775435 89.1307779 112.775435 94.6347943 111.081133 94.6347943 111.081133 86.4132621 112.879364 86.4132621"></polyline>
                    <polyline id="Fill-8" points="125.777394 86.4132621 125.777394 87.9331559 121.432127 87.9331559 121.432127 89.6950108 125.420256 89.6950108 125.420256 91.0997585 121.432127 91.0997585 121.432127 93.1147289 125.869814 93.1147289 125.869814 94.6347943 119.622215 94.6347943 119.622215 86.4132621 125.777394 86.4132621"></polyline>
                    <polyline id="Fill-9" points="126.445976 87.9331559 126.445976 86.4132621 133.18917 86.4132621 133.18917 87.9331559 130.722529 87.9331559 130.722529 94.6347943 128.912789 94.6347943 128.912789 87.9331559 126.445976 87.9331559"></polyline>
                    <polyline id="Fill-10" points="140.174236 94.6347943 138.779525 89.0386268 138.756506 89.0386268 137.384814 94.6347943 135.552054 94.6347943 133.373494 86.4132621 135.183235 86.4132621 136.485698 92.0094296 136.508717 92.0094296 137.938129 86.4132621 139.632602 86.4132621 141.038823 92.0785859 141.061842 92.0785859 142.410515 86.4132621 144.185556 86.4132621 141.972467 94.6347943 140.174236 94.6347943"></polyline>
                    <path d="M144.934704,88.8486615 C145.119028,88.3228678 145.384262,87.8641712 145.730062,87.4725716 C146.075863,87.0811436 146.50034,86.7741446 147.003838,86.5515747 C147.506992,86.3290047 148.073878,86.2174623 148.703808,86.2174623 C149.341641,86.2174623 149.910245,86.3290047 150.409792,86.5515747 C150.909338,86.7741446 151.331926,87.0811436 151.677898,87.4725716 C152.023699,87.8641712 152.288761,88.3228678 152.473257,88.8486615 C152.65758,89.3744552 152.749828,89.9445226 152.749828,90.5585205 C152.749828,91.1572458 152.65758,91.7158157 152.473257,92.2338872 C152.288761,92.7521303 152.023699,93.2031048 151.677898,93.5869822 C151.331926,93.9708596 150.909338,94.2720241 150.409792,94.4908188 C149.910245,94.7096135 149.341641,94.818925 148.703808,94.818925 C148.073878,94.818925 147.506992,94.7096135 147.003838,94.4908188 C146.50034,94.2720241 146.075863,93.9708596 145.730062,93.5869822 C145.384262,93.2031048 145.119028,92.7521303 144.934704,92.2338872 C144.75038,91.7158157 144.658132,91.1572458 144.658132,90.5585205 C144.658132,89.9445226 144.75038,89.3744552 144.934704,88.8486615 L144.934704,88.8486615 Z M146.588808,91.5660057 C146.669547,91.8923959 146.798213,92.1861814 146.974978,92.447019 C147.151572,92.7080282 147.382105,92.9172131 147.666407,93.074402 C147.950881,93.2319342 148.29651,93.3105287 148.703808,93.3105287 C149.111279,93.3105287 149.456908,93.2319342 149.74121,93.074402 C150.025512,92.9172131 150.256217,92.7080282 150.432982,92.447019 C150.609576,92.1861814 150.738414,91.8923959 150.819152,91.5660057 C150.89989,91.2397871 150.940088,90.9039587 150.940088,90.5585205 C150.940088,90.1978096 150.89989,89.8485961 150.819152,89.5107085 C150.738414,89.1729924 150.609576,88.8716564 150.432982,88.6068719 C150.256217,88.3420874 150.025512,88.1310149 149.74121,87.9734827 C149.456908,87.8162938 149.111279,87.7375277 148.703808,87.7375277 C148.29651,87.7375277 147.950881,87.8162938 147.666407,87.9734827 C147.382105,88.1310149 147.151572,88.3420874 146.974978,88.6068719 C146.798213,88.8716564 146.669547,89.1729924 146.588808,89.5107085 C146.50807,89.8485961 146.467873,90.1978096 146.467873,90.5585205 C146.467873,90.9039587 146.50807,91.2397871 146.588808,91.5660057 L146.588808,91.5660057 Z" id="Fill-11"></path>
                    <path d="M158.420921,86.4132621 C158.789569,86.4132621 159.12197,86.4728086 159.417953,86.5919015 C159.713593,86.7108229 159.967145,86.8738464 160.178611,87.0811436 C160.389905,87.2884409 160.55121,87.5283428 160.662869,87.8008494 C160.774013,88.0733561 160.829843,88.36697 160.829843,88.6816911 C160.829843,89.1652703 160.727975,89.5838116 160.524412,89.9368004 C160.320676,90.2899608 159.988447,90.5585205 159.527379,90.7428229 L159.527379,90.7658178 C159.750183,90.8274235 159.934507,90.9212907 160.080694,91.0479342 C160.226539,91.1745777 160.345757,91.3243877 160.438004,91.497021 C160.530252,91.6696543 160.59742,91.8597912 160.639678,92.0669168 C160.681765,92.2742141 160.710625,92.4815113 160.726257,92.6888086 C160.733816,92.819399 160.741546,92.9728126 160.749276,93.1493928 C160.756835,93.325973 160.770406,93.5063285 160.789645,93.6904592 C160.808542,93.8747616 160.839463,94.0494541 160.881721,94.2143652 C160.923808,94.3796196 160.987197,94.5196482 161.071886,94.6347943 L159.262145,94.6347943 C159.162339,94.3739567 159.100841,94.0630108 159.077822,93.7021283 C159.054803,93.3414173 159.020102,92.9958075 158.974236,92.6658137 C158.912394,92.2359465 158.781838,91.9212253 158.582054,91.7214786 C158.38227,91.5219036 158.055709,91.4222018 157.602372,91.4222018 L155.792803,91.4222018 L155.792803,94.6347943 L153.983063,94.6347943 L153.983063,86.4132621 L158.420921,86.4132621 L158.420921,86.4132621 Z M157.775358,90.1324286 C158.190216,90.1324286 158.501488,90.040449 158.709002,89.8561467 C158.916517,89.6720159 159.020102,89.3725675 159.020102,88.9581446 C159.020102,88.5589945 158.916517,88.2691559 158.709002,88.0886288 C158.501488,87.9084449 158.190216,87.8180098 157.775358,87.8180098 L155.792803,87.8180098 L155.792803,90.1324286 L157.775358,90.1324286 L157.775358,90.1324286 Z" id="Fill-12"></path>
                    <polyline id="Fill-13" points="164.114861 86.4132621 164.114861 89.8216543 167.330822 86.4132621 169.589949 86.4132621 166.374159 89.6603469 169.901221 94.6347943 167.630413 94.6347943 165.152091 90.9386227 164.114861 91.9862631 164.114861 94.6347943 162.305121 94.6347943 162.305121 86.4132621 164.114861 86.4132621"></polyline>
                    <path d="M21.8912463,78.0983776 C21.8912463,77.7620344 21.9893348,77.4339281 22.1858553,77.1135441 C22.3822039,76.7933316 22.6888377,76.5050374 23.1057566,76.2484899 C23.5225037,75.9922857 24.0576096,75.7722897 24.7112463,75.5878158 C25.3643677,75.4038567 26.1439218,75.2797872 27.0499086,75.2156074 L27.0499086,78.975444 L28.7814876,78.975444 L28.7814876,80.28478 L26.0879203,80.28478 C25.9996235,80.2286656 25.9255848,80.1567637 25.8654605,80.0685594 C25.8053363,79.9805267 25.7551754,79.8923224 25.7151499,79.8042897 C25.6749525,79.7081917 25.6430007,79.6081467 25.618951,79.5039833 C25.5787537,79.6560241 25.4987025,79.7883306 25.3784539,79.9002162 C25.2741813,79.9963142 25.1238706,80.0846901 24.9275219,80.1644858 C24.7310015,80.2447964 24.4645651,80.28478 24.1280409,80.28478 C23.3101791,80.28478 22.7329861,80.0906963 22.3962902,79.7021855 C22.0595943,79.3136748 21.8912463,78.779301 21.8912463,78.0983776 L21.8912463,78.0983776 Z M22.889481,73.4738301 C22.889481,73.2174542 22.9794956,72.9993459 23.1598684,72.8191621 C23.340413,72.6388066 23.5585782,72.5488863 23.815223,72.5488863 C24.0636221,72.5488863 24.274057,72.6388066 24.4465278,72.8191621 C24.6188268,72.9993459 24.7050621,73.2174542 24.7050621,73.4738301 C24.7050621,73.721969 24.6188268,73.9321835 24.4465278,74.104302 C24.274057,74.2767637 24.0636221,74.3627371 23.815223,74.3627371 C23.5585782,74.3627371 23.340413,74.2767637 23.1598684,74.104302 C22.9794956,73.9321835 22.889481,73.721969 22.889481,73.4738301 L22.889481,73.4738301 Z M23.3462537,77.8823285 L23.3462537,78.2667208 C23.3462537,78.4990722 23.41428,78.6751375 23.5506762,78.7950885 C23.6869006,78.9153827 23.907299,78.975444 24.2120431,78.975444 L25.5950731,78.975444 L25.5950731,76.5848332 C25.2582054,76.6490129 24.9515716,76.7289802 24.675,76.8250783 C24.3984284,76.921348 24.1639437,77.0253398 23.9715461,77.1375686 C23.7791484,77.2496258 23.6288377,77.36992 23.520614,77.4977647 C23.4123904,77.6259527 23.3541557,77.7543122 23.3462537,77.8823285 L23.3462537,77.8823285 Z M25.2702303,73.4738301 C25.2702303,73.2174542 25.3604167,72.9993459 25.5407895,72.8191621 C25.7211623,72.6388066 25.9394993,72.5488863 26.1963158,72.5488863 C26.4445431,72.5488863 26.6549781,72.6388066 26.8274488,72.8191621 C26.9997478,72.9993459 27.0859832,73.2174542 27.0859832,73.4738301 C27.0859832,73.721969 26.9997478,73.9321835 26.8274488,74.104302 C26.6549781,74.2767637 26.4445431,74.3627371 26.1963158,74.3627371 C25.9394993,74.3627371 25.7211623,74.2767637 25.5407895,74.104302 C25.3604167,73.9321835 25.2702303,73.721969 25.2702303,73.4738301 L25.2702303,73.4738301 Z" id="Fill-14"></path>
                    <polygon id="Fill-15" points="28.4806944 78.975444 32.8336915 78.975444 32.8336915 80.28478 28.4806944 80.28478"></polygon>
                    <path d="M32.5330702,78.975444 L34.7937427,78.975444 L34.7937427,75.455681 L36.3208991,75.0232397 L36.3208991,78.975444 L38.2569006,78.975444 L38.2569006,80.28478 L32.5330702,80.28478 L32.5330702,78.975444 L32.5330702,78.975444 Z M33.4108845,82.242778 C33.4108845,81.9864021 33.5010709,81.7682938 33.6814437,81.5881099 C33.8618165,81.4079261 34.0801535,81.3178342 34.3367982,81.3178342 C34.5851974,81.3178342 34.7956323,81.4079261 34.9681031,81.5881099 C35.140402,81.7682938 35.2266374,81.9864021 35.2266374,82.242778 C35.2266374,82.4909169 35.140402,82.7011314 34.9681031,82.8732499 C34.7956323,83.0453684 34.5851974,83.1315134 34.3367982,83.1315134 C34.0801535,83.1315134 33.8618165,83.0453684 33.6814437,82.8732499 C33.5010709,82.7011314 33.4108845,82.4909169 33.4108845,82.242778 L33.4108845,82.242778 Z M35.7918056,82.242778 C35.7918056,81.9864021 35.881992,81.7682938 36.0623648,81.5881099 C36.2427376,81.4079261 36.4610746,81.3178342 36.7177193,81.3178342 C36.9661184,81.3178342 37.1765534,81.4079261 37.3490241,81.5881099 C37.5213231,81.7682938 37.6075585,81.9864021 37.6075585,82.242778 C37.6075585,82.4909169 37.5213231,82.7011314 37.3490241,82.8732499 C37.1765534,83.0453684 36.9661184,83.1315134 36.7177193,83.1315134 C36.4610746,83.1315134 36.2427376,83.0453684 36.0623648,82.8732499 C35.881992,82.7011314 35.7918056,82.4909169 35.7918056,82.242778 L35.7918056,82.242778 Z" id="Fill-16"></path>
                    <path d="M43.8244079,79.2397136 C43.8080885,79.4480405 43.7161842,79.7123102 43.5478363,80.032351 C43.2271162,80.6890783 42.9225439,81.0175277 42.6339474,81.0175277 C42.5296747,81.0175277 42.4175,80.9893847 42.2972515,80.9332703 C42.0567544,80.8373439 41.7300219,80.6890783 41.3172259,80.4889884 C40.904258,80.2885553 40.4052266,80.040588 39.8201316,79.7442284 C39.6837354,79.9844736 39.5274123,80.1406329 39.3511623,80.2127065 C39.2147661,80.2605839 38.9904167,80.28478 38.6777705,80.28478 L37.896155,80.28478 L37.896155,78.975444 L38.7859942,78.975444 C39.0264912,78.4228801 39.2790132,77.9204246 39.5435599,77.4679057 C39.8081067,77.0155584 40.0705921,76.6311661 40.3311879,76.314729 C40.5916118,75.9984634 40.8441338,75.7522121 41.0887537,75.5759751 C41.3332018,75.3999098 41.5596126,75.3117055 41.7681579,75.3117055 C42.2972515,75.3117055 42.7380482,75.6880323 43.0908918,76.4408577 C43.1949927,76.6651437 43.2992654,76.9474317 43.403538,77.2877218 C43.5074671,77.6281835 43.6199854,78.0384879 43.7402339,78.5189782 C43.812383,78.8474276 43.840212,79.0876728 43.8244079,79.2397136 L43.8244079,79.2397136 Z M42.4776243,79.443922 C42.3814254,78.723015 42.2551645,78.1404205 42.0988414,77.6961386 C41.9425183,77.251685 41.7480592,77.0292867 41.515636,77.0292867 C41.4352412,77.0292867 41.2950658,77.1214378 41.0947661,77.3057402 C40.9745175,77.4256912 40.8482566,77.5921467 40.7159832,77.8042489 C40.5837098,78.0165226 40.4734247,78.2066595 40.3852997,78.3748311 C40.7219956,78.631207 41.0707164,78.8491437 41.431462,79.0294991 C41.7922076,79.2095114 42.1409284,79.3478239 42.4776243,79.443922 L42.4776243,79.443922 Z" id="Fill-17"></path>
                    <path d="M45.543962,74.1825533 C45.6080373,74.1425696 45.7102485,74.0945206 45.8505958,74.0384062 C45.9907712,73.9822918 46.1331798,73.9222305 46.2774781,73.8580507 C46.445826,73.7859772 46.6261988,73.7140752 46.8185965,73.6420017 C47.0590936,73.9541488 47.2935782,74.3527841 47.5220504,74.8370497 C47.7505227,75.3218301 47.9588962,75.8222264 48.1473428,76.3385819 C48.3356177,76.8552805 48.502076,77.3498423 48.6463743,77.8222673 C48.7906725,78.2948638 48.9028472,78.6751375 48.9830702,78.9632601 C49.1593202,78.9394072 49.3017288,78.8874113 49.4099525,78.8072724 C49.5181762,78.7271334 49.6023501,78.6330946 49.6624744,78.5249843 C49.7225987,78.416874 49.7626243,78.2988107 49.782723,78.1706227 C49.8026499,78.0426064 49.8127851,77.9144184 49.8127851,77.7862305 L49.8127851,72.5969353 L51.3519664,72.1404695 L51.3519664,78.2547085 C51.3519664,78.5110844 51.4181031,78.6950436 51.5503765,78.8072724 C51.6826499,78.9195012 51.8570102,78.975444 52.0734576,78.975444 L53.0354459,78.975444 L53.0354459,80.28478 L52.4943275,80.28478 C52.1095322,80.28478 51.7807383,80.2127065 51.5082895,80.0685594 C51.2356689,79.9242407 51.0312463,79.7320446 50.8950219,79.4917994 C50.7105263,79.7241508 50.451992,79.9142877 50.1194189,80.0625533 C49.786674,80.2106472 49.339693,80.28478 48.7786477,80.28478 L44.557924,80.28478 L44.9787939,78.975444 L47.4919883,78.975444 C47.4277412,78.6950436 47.3435673,78.368825 47.2394664,77.996445 C47.1351937,77.624065 47.0049817,77.2276605 46.8486586,76.8070599 C46.6923355,76.3868025 46.5059503,75.9524736 46.2895029,75.5039016 C46.0730556,75.0553296 45.8244846,74.6149946 45.543962,74.1825533" id="Fill-18"></path>
                    <path d="M52.6745285,78.975444 L54.5985051,78.975444 C54.4380592,78.7672887 54.3318969,78.5128005 54.2798465,78.212494 C54.2276243,77.9121876 54.2016849,77.5938628 54.2016849,77.2575196 C54.2016849,76.6090293 54.4641703,76.0945614 54.9893129,75.7141161 C55.5142836,75.3336707 56.2378363,75.1315216 57.159799,75.1074971 C57.4964949,75.0913664 57.8771674,75.1116156 58.3021601,75.1675584 C58.726981,75.2235012 59.131875,75.2875094 59.5166703,75.3595829 L59.5166703,76.7051273 C59.3964218,76.673209 59.2461111,76.6371723 59.0657383,76.5968454 C58.8853655,76.5568618 58.688845,76.520825 58.4765205,76.4887351 C58.2640241,76.4568168 58.0436257,76.4309047 57.8151535,76.4106554 C57.5866813,76.390921 57.3642215,76.3807964 57.1477741,76.3807964 C56.9713523,76.3807964 56.8069554,76.392637 56.6547551,76.4168332 C56.502383,76.4408577 56.3680482,76.4887351 56.2519225,76.5608086 C56.135625,76.6330538 56.0454386,76.7332703 55.9813633,76.8611151 C55.9171162,76.989303 55.8851645,77.1536993 55.8851645,77.3537892 C55.8851645,77.7862305 55.9272515,78.1285798 56.0114254,78.3806656 C56.0955994,78.6330946 56.2057127,78.8311253 56.3421089,78.975444 L59.5647697,78.975444 L59.5647697,80.28478 L52.6745285,80.28478 L52.6745285,78.975444" id="Fill-19"></path>
                    <path d="M60.8632822,72.2485799 C61.0635819,72.4328822 61.3021893,72.6309128 61.578761,72.843015 C61.8555044,73.0554603 62.1398063,73.2836932 62.4326974,73.5278853 C62.7252449,73.7720773 63.0176206,74.0324001 63.3103399,74.3085104 C63.6028874,74.5849639 63.8694956,74.8792642 64.1101645,75.1914113 C64.1659942,75.1275747 64.1941667,74.8911049 64.1941667,74.4828597 L64.1941667,72.5729108 L65.6732237,72.0922489 L65.6732237,74.5187249 C65.6732237,75.1596646 65.4327266,75.7559874 64.9517325,76.3087228 C65.6172222,77.3338832 65.9499671,78.2468148 65.9499671,79.0475175 L65.9499671,80.28478 L60.4905117,80.28478 L60.4905117,78.6629537 C60.7870102,78.4709292 61.0737171,78.26878 61.3504605,78.0565063 C61.6270322,77.8444041 61.8853947,77.6360773 62.1258918,77.4318689 C62.3663889,77.2276605 62.5847259,77.0315175 62.7812463,76.8430967 C62.977595,76.6551907 63.1440534,76.4930252 63.2804496,76.3566003 C63.0557566,76.0444532 62.8073575,75.7559874 62.5349086,75.4917177 C62.2621162,75.2274481 61.9855446,74.983256 61.7051937,74.75897 C61.4243275,74.5350272 61.1498173,74.3265288 60.8814912,74.1345043 C60.6126499,73.9423081 60.374386,73.7621243 60.1660124,73.5937811 L60.8632822,72.2485799 L60.8632822,72.2485799 Z M64.494788,83.7443101 L61.6089949,84.5970088 L61.6089949,83.8404082 L62.4026352,83.5999914 C62.3141667,83.5840323 62.2360051,83.5459363 62.1679788,83.485875 C62.0997807,83.4259853 62.0418896,83.3537402 61.9936184,83.269826 C61.945519,83.1855686 61.907383,83.0954766 61.8793823,82.9993786 C61.8512098,82.9032805 61.8374671,82.8193663 61.8374671,82.7472928 C61.8374671,82.4988107 61.8932968,82.2767555 62.0058151,82.0804409 C62.117818,81.8841263 62.2602266,81.7159547 62.4326974,81.5760977 C62.6048246,81.4358975 62.7912098,81.3296748 62.9916813,81.2577729 C63.191981,81.1856993 63.3805994,81.1496625 63.5568494,81.1496625 C63.741345,81.1496625 63.917595,81.1795216 64.085943,81.2397545 C64.2542909,81.2998158 64.4185161,81.4336666 64.5791338,81.6421651 C64.498739,81.7061733 64.4006506,81.7863122 64.2843531,81.8824102 C64.1680556,81.9785083 64.0297697,82.0943408 63.8694956,82.2305941 C63.7251974,82.0785532 63.5449963,82.0023612 63.3283772,82.0023612 C63.1198319,82.0023612 62.9717544,82.0584756 62.8836294,82.1707044 C62.7951608,82.2827616 62.7511842,82.3946472 62.7511842,82.5070476 C62.7511842,82.6110395 62.7812463,82.7069659 62.8413706,82.7951702 C62.9014949,82.8833745 62.9757054,82.9575073 63.0638304,83.017397 C63.1519554,83.0774583 63.244375,83.1256789 63.3405738,83.1617157 C63.4367727,83.1977524 63.5207749,83.2197177 63.592924,83.2276115 L64.494788,82.9633418 L64.494788,83.7443101 L64.494788,83.7443101 Z M64.7352851,78.975444 C64.7114072,78.8793459 64.6770504,78.7652295 64.6332456,78.6330946 C64.5889254,78.5007882 64.5348136,78.3609312 64.4707383,78.212494 C64.4064912,78.0645717 64.3343421,77.9121876 64.2542909,77.7561998 C64.1742398,77.5998689 64.085943,77.4540058 63.9897442,77.3177525 C63.8213962,77.4857525 63.6609503,77.6400242 63.5089218,77.7800528 C63.3563779,77.9204246 63.1981652,78.0565063 63.0337683,78.1886411 C62.8693713,78.3207759 62.6931213,78.4489639 62.5046747,78.5728617 C62.3162281,78.6972744 62.1059649,78.8311253 61.8735417,78.975444 L64.7352851,78.975444 L64.7352851,78.975444 Z" id="Fill-20"></path>
                    <polyline id="Fill-21" points="68.7036586 72.1404695 68.7036586 80.28478 67.1765022 80.28478 67.1765022 72.5729108 68.7036586 72.1404695"></polyline>
                    <path d="M78.3353947,78.3387943 C78.3353947,78.7152928 78.2632456,79.0336176 78.1189474,79.2937688 C77.9746491,79.5540916 77.7741776,79.768253 77.5177047,79.9364246 C77.2610599,80.1045962 76.9544262,80.226778 76.5978034,80.3026268 C76.2410088,80.3786472 75.850201,80.4169149 75.4253801,80.4169149 C75.1446857,80.4169149 74.8541996,80.3927187 74.5535782,80.3448413 C74.2529569,80.2966207 73.9803363,80.2087596 73.7358882,80.0805716 C73.4912683,79.9525553 73.2889072,79.7802652 73.128633,79.563873 C72.9681871,79.3478239 72.888136,79.071542 72.888136,78.7351988 C72.888136,78.1105614 73.018348,77.5480446 73.2789437,77.0473051 C73.5393677,76.5470803 73.9141996,76.1165267 74.4032675,75.7559874 L73.9823977,75.5759751 L74.5716155,74.6268352 C75.1488085,74.7469578 75.6698282,74.9213071 76.1348465,75.14954 C76.599693,75.3776013 76.9946235,75.6501079 77.3192946,75.9663735 C77.6439656,76.2828107 77.8944262,76.6411192 78.070848,77.0414705 C78.247098,77.4419935 78.3353947,77.8744348 78.3353947,78.3387943 L78.3353947,78.3387943 Z M73.0685088,73.4256095 C73.0685088,73.1374869 73.17072,72.8912356 73.3751425,72.6870272 C73.5795651,72.4828189 73.8260746,72.3807147 74.1146711,72.3807147 C74.2589693,72.3807147 74.3931323,72.4088577 74.5175037,72.4648005 C74.6417032,72.5207433 74.7499269,72.5948761 74.8421747,72.6870272 C74.9342507,72.7791784 75.0063999,72.889348 75.0586221,73.0171927 C75.1106725,73.1455523 75.1367836,73.281634 75.1367836,73.4256095 C75.1367836,73.7061815 75.036462,73.946255 74.8361623,74.1465165 C74.6356908,74.3466064 74.3951937,74.4466513 74.1146711,74.4466513 C73.9703728,74.4466513 73.8339766,74.4209108 73.705826,74.3685717 C73.5775037,74.3167474 73.4672186,74.2446738 73.3751425,74.1525226 C73.2828947,74.0605431 73.2086842,73.9524328 73.1526827,73.8281917 C73.0965095,73.7039506 73.0685088,73.5699282 73.0685088,73.4256095 L73.0685088,73.4256095 Z M76.6639401,78.3027576 C76.6639401,78.2066595 76.6477924,78.0666309 76.6158406,77.8823285 C76.5837171,77.6981978 76.5235928,77.5078893 76.4354678,77.3115747 C76.3471711,77.1156033 76.2289839,76.9333602 76.0807346,76.7651886 C75.9323136,76.5968454 75.7419773,76.4768944 75.5095541,76.4048209 C75.3652558,76.4847882 75.2329825,76.5989047 75.1127339,76.7469986 C74.9924854,76.8954358 74.8882127,77.0493643 74.8000877,77.2096421 C74.7117909,77.36992 74.6417032,77.5300262 74.5896528,77.6899608 C74.5374306,77.8502387 74.5114912,77.9825451 74.5114912,78.0865369 C74.5114912,78.2468148 74.539492,78.3828965 74.5956652,78.4947821 C74.6516667,78.6071825 74.7219262,78.6989904 74.8061001,78.7712356 C74.8902741,78.8433091 74.986473,78.8954767 75.0946966,78.9272233 C75.2029203,78.9593132 75.3130336,78.975444 75.4253801,78.975444 C75.7780519,78.975444 76.0726608,78.9213888 76.3092069,78.8131069 C76.5455811,78.7051682 76.6639401,78.5351089 76.6639401,78.3027576 L76.6639401,78.3027576 Z M75.5215789,73.4256095 C75.5215789,73.1374869 75.6237902,72.8912356 75.8282127,72.6870272 C76.0326352,72.4828189 76.2791447,72.3807147 76.5677412,72.3807147 C76.7120395,72.3807147 76.8462025,72.4088577 76.9705738,72.4648005 C77.0947734,72.5207433 77.2029971,72.5948761 77.2952449,72.6870272 C77.3873209,72.7791784 77.45947,72.889348 77.5116923,73.0171927 C77.5637427,73.1455523 77.5898538,73.281634 77.5898538,73.4256095 C77.5898538,73.7061815 77.4895322,73.946255 77.2892325,74.1465165 C77.088761,74.3466064 76.8482639,74.4466513 76.5677412,74.4466513 C76.423443,74.4466513 76.2870468,74.4209108 76.1588962,74.3685717 C76.0305738,74.3167474 75.9202887,74.2446738 75.8282127,74.1525226 C75.7359649,74.0605431 75.6617544,73.9524328 75.6057529,73.8281917 C75.5495797,73.7039506 75.5215789,73.5699282 75.5215789,73.4256095 L75.5215789,73.4256095 Z" id="Fill-22"></path>
                    <path d="M81.4137573,74.9513378 C81.5340058,75.5999997 81.6219591,76.2484899 81.6783041,76.8971518 C81.7343056,77.5459853 81.7745029,78.1507167 81.7985526,78.7111743 L83.1333114,78.7111743 L83.1333114,80.28478 L81.8105775,80.28478 C81.8025037,80.4208617 81.7805154,80.5850865 81.7444408,80.7772826 C81.7083662,80.9694787 81.6461806,81.1654501 81.5580556,81.3657116 C81.4697588,81.5658015 81.3455592,81.766063 81.1852851,81.9663244 C81.0246674,82.1664143 80.8144042,82.3467698 80.5539803,82.5070476 C80.2933845,82.6669823 79.9747259,82.7951702 79.5980044,82.8914399 C79.2209393,82.9875379 78.7682895,83.0354153 78.2391959,83.0354153 L77.9626243,82.0505819 C78.3795431,82.0425165 78.7481908,81.9663244 79.0689108,81.8221774 C79.2051352,81.7581692 79.33947,81.6782019 79.4717434,81.5821038 C79.6040168,81.4860058 79.7222039,81.3657116 79.8264766,81.2217361 C79.9305775,81.077589 80.0147515,80.9051273 80.0789985,80.705209 C80.1430738,80.5049475 80.1751974,80.2727678 80.1751974,80.0084981 C80.1751974,79.2798689 80.1571601,78.5308188 80.1210855,77.7620344 C80.085011,76.9932499 79.966652,76.2366493 79.7663523,75.4917177 L81.4137573,74.9513378" id="Fill-23"></path>
                    <polygon id="Fill-24" points="82.8325183 78.7111743 87.1855154 78.7111743 87.1855154 80.28478 82.8325183 80.28478"></polygon>
                    <path d="M91.4543385,74.9271416 L91.4543385,80.28478 L86.884894,80.28478 L86.884894,78.7111743 L89.602511,78.7111743 L89.602511,75.455681 L91.4543385,74.9271416 L91.4543385,74.9271416 Z M87.1374159,82.3627289 C87.1374159,82.0746064 87.2396272,81.8283551 87.4440497,81.6241467 C87.6484722,81.4199383 87.8949817,81.3178342 88.1835782,81.3178342 C88.3278765,81.3178342 88.4620395,81.3458056 88.5864108,81.4017483 C88.7106104,81.4578628 88.8188341,81.5319955 88.9110819,81.6241467 C89.0031579,81.7159547 89.075307,81.8262958 89.1275292,81.9544838 C89.1795797,82.0825001 89.2056908,82.2187535 89.2056908,82.3627289 C89.2056908,82.6431293 89.1053692,82.8833745 88.9050694,83.083636 C88.704598,83.2837259 88.4641009,83.3839424 88.1835782,83.3839424 C88.03928,83.3839424 87.9028838,83.3578587 87.7747332,83.3058627 C87.6464108,83.2535236 87.5361257,83.1814501 87.4440497,83.0896421 C87.3518019,82.9974909 87.2775914,82.889209 87.2215899,82.7653112 C87.1654167,82.6410701 87.1374159,82.5070476 87.1374159,82.3627289 L87.1374159,82.3627289 Z M89.5904861,82.3627289 C89.5904861,82.0746064 89.6926974,81.8283551 89.8971199,81.6241467 C90.1015424,81.4199383 90.3480519,81.3178342 90.6366484,81.3178342 C90.7809466,81.3178342 90.9151096,81.3458056 91.039481,81.4017483 C91.1636806,81.4578628 91.2719042,81.5319955 91.364152,81.6241467 C91.4562281,81.7159547 91.5283772,81.8262958 91.5805994,81.9544838 C91.6326499,82.0825001 91.658761,82.2187535 91.658761,82.3627289 C91.658761,82.6431293 91.5584393,82.8833745 91.3581396,83.083636 C91.1576681,83.2837259 90.9171711,83.3839424 90.6366484,83.3839424 C90.4923501,83.3839424 90.3559539,83.3578587 90.2278034,83.3058627 C90.099481,83.2535236 89.9891959,83.1814501 89.8971199,83.0896421 C89.8048721,82.9974909 89.7306615,82.889209 89.6746601,82.7653112 C89.6184868,82.6410701 89.5904861,82.5070476 89.5904861,82.3627289 L89.5904861,82.3627289 Z" id="Fill-25"></path>
                    <path d="M94.9894737,74.9513378 C95.109894,75.5999997 95.1978472,76.2484899 95.2540205,76.8971518 C95.3101937,77.5459853 95.3502193,78.1507167 95.3744408,78.7111743 L96.7091996,78.7111743 L96.7091996,80.28478 L95.3864656,80.28478 C95.3783918,80.4208617 95.3564035,80.5850865 95.3203289,80.7772826 C95.2842544,80.9694787 95.2218969,81.1654501 95.1339437,81.3657116 C95.0456469,81.5658015 94.9212756,81.766063 94.7610015,81.9663244 C94.6005556,82.1664143 94.3902924,82.3467698 94.1298684,82.5070476 C93.8691009,82.6669823 93.5504423,82.7951702 93.1738925,82.8914399 C92.7968275,82.9875379 92.3440058,83.0354153 91.8149123,83.0354153 L91.5385124,82.0505819 C91.9552595,82.0425165 92.3239072,81.9663244 92.6446272,81.8221774 C92.7808516,81.7581692 92.9153582,81.6782019 93.0476316,81.5821038 C93.179905,81.4860058 93.2980921,81.3657116 93.4023648,81.2217361 C93.5064656,81.077589 93.5904678,80.9051273 93.6547149,80.705209 C93.7187902,80.5049475 93.7509137,80.2727678 93.7509137,80.0084981 C93.7509137,79.2798689 93.7330482,78.5308188 93.6968019,77.7620344 C93.6608991,76.9932499 93.5425402,76.2366493 93.3422405,75.4917177 L94.9894737,74.9513378 L94.9894737,74.9513378 Z M92.8973209,73.4377933 C92.8973209,73.1494992 92.9993604,72.9030763 93.2037829,72.6990395 C93.4082054,72.4946595 93.6547149,72.3925553 93.9434832,72.3925553 C94.0876096,72.3925553 94.2219444,72.4206983 94.346144,72.4768127 C94.4703436,72.5329271 94.5785673,72.6070599 94.6708151,72.6990395 C94.7630629,72.7911907 94.8350402,72.9013602 94.8874342,73.0293766 C94.9393129,73.1573929 94.9655958,73.2934746 94.9655958,73.4377933 C94.9655958,73.7180221 94.8651023,73.9584389 94.6649744,74.1583572 C94.4643311,74.3586187 94.2238341,74.4586636 93.9434832,74.4586636 C93.7991849,74.4586636 93.662617,74.4327514 93.5346382,74.3807555 C93.4063158,74.3287596 93.2960307,74.2566861 93.2037829,74.1645349 C93.1115351,74.0723837 93.0374963,73.964445 92.9813231,73.8400323 C92.9251499,73.7161345 92.8973209,73.5819404 92.8973209,73.4377933 L92.8973209,73.4377933 Z" id="Fill-26"></path>
                    <path d="M104.585307,80.28478 L96.3484539,80.28478 L96.3484539,78.7111743 L101.495091,78.7111743 C101.286374,78.2948638 101.108235,77.9465083 100.959814,77.6661079 C100.811564,77.3857075 100.67723,77.1636524 100.557153,76.9994276 C100.436732,76.8353745 100.320435,76.7191988 100.20826,76.6510722 C100.096086,76.5831171 99.9677632,76.548968 99.8236367,76.548968 C99.6149196,76.548968 99.4345468,76.6011355 99.2823465,76.7051273 C99.1299744,76.8092908 98.9535526,76.9855277 98.7534247,77.2336667 L97.7070906,76.3087228 C97.8352412,76.1165267 97.9917361,75.9363429 98.1760599,75.7681713 C98.3603838,75.5999997 98.5627449,75.4539649 98.7833151,75.3297239 C99.0038852,75.2054828 99.2321857,75.1074971 99.4689035,75.0354236 C99.705106,74.96335 99.9437135,74.9271416 100.184211,74.9271416 C100.448757,74.9271416 100.693377,74.9854869 100.917727,75.101491 C101.142076,75.2176667 101.366597,75.4038567 101.59129,75.6598893 C101.815468,75.9164368 102.058026,76.2507208 102.318622,76.6630844 C102.579046,77.0754481 102.877778,77.5741283 103.214474,78.1584389 C103.326648,78.3508066 103.458922,78.4908352 103.611294,78.5790395 C103.763494,78.6672438 103.927891,78.7111743 104.104485,78.7111743 L104.585307,78.7111743 L104.585307,80.28478 L104.585307,80.28478 Z M99.3424708,82.3026677 C99.3424708,82.0145451 99.4448538,81.7682938 99.6491045,81.5640854 C99.853527,81.3598771 100.100037,81.2577729 100.388805,81.2577729 C100.532931,81.2577729 100.667094,81.2857443 100.791466,81.3418587 C100.915665,81.3976299 101.023889,81.4719343 101.116137,81.5640854 C101.208213,81.6558934 101.280362,81.766063 101.332584,81.8942509 C101.384635,82.0222672 101.410746,82.1586922 101.410746,82.3026677 C101.410746,82.5830681 101.310424,82.8233132 101.110124,83.0235747 C100.909653,83.2236646 100.669156,83.3237095 100.388805,83.3237095 C100.244335,83.3237095 100.107939,83.2977974 99.979788,83.2456299 C99.8514656,83.1936339 99.7413523,83.1213888 99.6491045,83.0295808 C99.5568567,82.9374297 99.4826462,82.8293193 99.4268165,82.7050783 C99.3704715,82.5808372 99.3424708,82.4469863 99.3424708,82.3026677 L99.3424708,82.3026677 Z" id="Fill-27"></path>
                    <polyline id="Fill-28" points="107.675694 72.0441999 107.675694 80.28478 104.236586 80.28478 104.236586 78.7111743 105.823867 78.7111743 105.823867 72.5729108 107.675694 72.0441999"></polyline>
                    <polyline id="Fill-29" points="110.934258 72.0441999 110.934258 80.28478 109.082602 80.28478 109.082602 72.5729108 110.934258 72.0441999"></polyline>
                    <path d="M115.744028,78.0983776 C115.744028,77.7620344 115.842116,77.4339281 116.038637,77.1135441 C116.234985,76.7933316 116.541619,76.5050374 116.958538,76.2484899 C117.375285,75.9922857 117.910391,75.7722897 118.563856,75.5878158 C119.217149,75.4038567 119.996703,75.2797872 120.90269,75.2156074 L120.90269,78.975444 L122.634269,78.975444 L122.634269,80.28478 L119.940702,80.28478 C119.852405,80.2286656 119.778366,80.1567637 119.718242,80.0685594 C119.658118,79.9805267 119.607957,79.8923224 119.567931,79.8042897 C119.527734,79.7081917 119.495782,79.6081467 119.471732,79.5039833 C119.431535,79.6560241 119.351484,79.7883306 119.231235,79.9002162 C119.126963,79.9963142 118.976652,80.0846901 118.780303,80.1644858 C118.583783,80.2447964 118.317346,80.28478 117.980651,80.28478 C117.162961,80.28478 116.585768,80.0906963 116.249072,79.7021855 C115.912376,79.3136748 115.744028,78.779301 115.744028,78.0983776 L115.744028,78.0983776 Z M116.742091,73.4738301 C116.742091,73.2174542 116.832277,72.9993459 117.01265,72.8191621 C117.193023,72.6388066 117.41136,72.5488863 117.668004,72.5488863 C117.916404,72.5488863 118.126838,72.6388066 118.299309,72.8191621 C118.471608,72.9993459 118.557844,73.2174542 118.557844,73.4738301 C118.557844,73.721969 118.471608,73.9321835 118.299309,74.104302 C118.126838,74.2767637 117.916404,74.3627371 117.668004,74.3627371 C117.41136,74.3627371 117.193023,74.2767637 117.01265,74.104302 C116.832277,73.9321835 116.742091,73.721969 116.742091,73.4738301 L116.742091,73.4738301 Z M117.199035,77.8823285 L117.199035,78.2667208 C117.199035,78.4990722 117.267061,78.6751375 117.403458,78.7950885 C117.539682,78.9153827 117.76008,78.975444 118.064825,78.975444 L119.447683,78.975444 L119.447683,76.5848332 C119.110987,76.6490129 118.804353,76.7289802 118.527781,76.8250783 C118.25121,76.921348 118.016725,77.0253398 117.824327,77.1375686 C117.63193,77.2496258 117.481619,77.36992 117.373395,77.4977647 C117.265172,77.6259527 117.206937,77.7543122 117.199035,77.8823285 L117.199035,77.8823285 Z M119.123012,73.4738301 C119.123012,73.2174542 119.213198,72.9993459 119.393571,72.8191621 C119.573944,72.6388066 119.792281,72.5488863 120.048925,72.5488863 C120.297325,72.5488863 120.50776,72.6388066 120.68023,72.8191621 C120.852529,72.9993459 120.938765,73.2174542 120.938765,73.4738301 C120.938765,73.721969 120.852529,73.9321835 120.68023,74.104302 C120.50776,74.2767637 120.297325,74.3627371 120.048925,74.3627371 C119.792281,74.3627371 119.573944,74.2767637 119.393571,74.104302 C119.213198,73.9321835 119.123012,73.721969 119.123012,73.4738301 L119.123012,73.4738301 Z" id="Fill-30"></path>
                    <polygon id="Fill-31" points="122.333476 78.975444 126.686473 78.975444 126.686473 80.28478 122.333476 80.28478"></polygon>
                    <path d="M133.745062,80.28478 L126.566224,80.28478 L126.566224,78.975444 L130.582526,78.975444 L130.582526,78.6150762 C130.582526,78.3828965 130.518279,78.1326983 130.390128,77.8643102 C130.261806,77.5960936 130.083322,77.3338832 129.85485,77.0775073 C129.62655,76.8211314 129.351868,76.5748801 129.031148,76.3385819 C128.710599,76.1026268 128.357756,75.9003061 127.973132,75.7321345 L128.069331,73.6660262 L132.72295,72.0922489 L132.337982,73.6898791 L129.307891,74.6149946 C129.644587,74.8471743 129.967197,75.1195094 130.275892,75.4318281 C130.584243,75.7441467 130.859097,76.0645308 131.099594,76.392637 C131.356067,76.7531764 131.572343,77.1195502 131.748936,77.4919302 C131.925186,77.8643102 132.013483,78.2387494 132.013483,78.6150762 L132.013483,78.975444 L133.745062,78.975444 L133.745062,80.28478" id="Fill-32"></path>
                    <path d="M133.564518,78.975444 L135.82519,78.975444 L135.82519,75.455681 L137.352346,75.0232397 L137.352346,78.975444 L139.288176,78.975444 L139.288176,80.28478 L133.564518,80.28478 L133.564518,78.975444 L133.564518,78.975444 Z M135.656842,82.2305941 C135.656842,81.9742182 135.747029,81.7562815 135.927401,81.5760977 C136.107774,81.3959138 136.326111,81.3058219 136.582584,81.3058219 C136.831155,81.3058219 137.04159,81.3959138 137.214061,81.5760977 C137.38636,81.7562815 137.472595,81.9742182 137.472595,82.2305941 C137.472595,82.4789046 137.38636,82.6889475 137.214061,82.8614092 C137.04159,83.0335277 136.831155,83.1196728 136.582584,83.1196728 C136.326111,83.1196728 136.107774,83.0335277 135.927401,82.8614092 C135.747029,82.6889475 135.656842,82.4789046 135.656842,82.2305941 L135.656842,82.2305941 Z" id="Fill-33"></path>
                    <path d="M138.927602,78.975444 L140.899507,78.975444 L140.899507,75.4917177 L142.342661,74.9872029 L142.342661,78.975444 L143.929942,78.975444 L143.929942,75.4917177 L145.372752,74.9872029 L145.372752,78.975444 L146.948008,78.975444 L146.948008,75.4917177 L148.391162,74.9872029 L148.391162,80.28478 L138.927602,80.28478 L138.927602,78.975444 L138.927602,78.975444 Z M142.486959,73.4738301 C142.486959,73.2174542 142.577145,72.9993459 142.757518,72.8191621 C142.937891,72.6388066 143.156228,72.5488863 143.412701,72.5488863 C143.661272,72.5488863 143.871535,72.6388066 144.044178,72.8191621 C144.216477,72.9993459 144.302712,73.2174542 144.302712,73.4738301 C144.302712,73.721969 144.216477,73.9321835 144.044178,74.104302 C143.871535,74.2767637 143.661272,74.3627371 143.412701,74.3627371 C143.156228,74.3627371 142.937891,74.2767637 142.757518,74.104302 C142.577145,73.9321835 142.486959,73.721969 142.486959,73.4738301 L142.486959,73.4738301 Z M143.62932,71.1913296 C143.62932,70.9352969 143.719335,70.717017 143.899708,70.5366616 C144.080252,70.3566493 144.298417,70.2665574 144.555234,70.2665574 C144.803633,70.2665574 145.014068,70.3566493 145.186367,70.5366616 C145.358666,70.717017 145.444901,70.9352969 145.444901,71.1913296 C145.444901,71.4398117 145.358666,71.6519139 145.186367,71.8281508 C145.014068,72.0043878 144.803633,72.0922489 144.555234,72.0922489 C144.298417,72.0922489 144.080252,72.0043878 143.899708,71.8281508 C143.719335,71.6519139 143.62932,71.4398117 143.62932,71.1913296 L143.62932,71.1913296 Z M144.86788,73.4738301 C144.86788,73.2174542 144.957895,72.9993459 145.138439,72.8191621 C145.318812,72.6388066 145.536977,72.5488863 145.793794,72.5488863 C146.042193,72.5488863 146.252456,72.6388066 146.424927,72.8191621 C146.597226,72.9993459 146.683461,73.2174542 146.683461,73.4738301 C146.683461,73.721969 146.597226,73.9321835 146.424927,74.104302 C146.252456,74.2767637 146.042193,74.3627371 145.793794,74.3627371 C145.536977,74.3627371 145.318812,74.2767637 145.138439,74.104302 C144.957895,73.9321835 144.86788,73.721969 144.86788,73.4738301 L144.86788,73.4738301 Z" id="Fill-34"></path>
                    <path d="M90.6986623,59.4742306 C90.5966228,59.5207352 90.5619225,59.691824 90.6277156,59.9324124 C90.6986623,60.1611601 91.0844883,61.1624675 91.0844883,61.1624675 C91.3571089,61.9158077 91.8185197,62.7875544 92.439174,63.2350967 C93.1013999,63.7087229 93.4439364,63.5422673 93.5775841,63.4911294 C93.6758443,63.4360447 94.1015241,63.1722898 93.9496674,62.4870763 C93.7873319,61.7610212 93.698348,61.5652214 93.565731,61.3002653 C93.4363779,61.0351376 93.2606433,60.8707413 93.1565424,60.9155299 C93.0940132,60.9265125 93.1458918,61.1652132 93.1458918,61.3151948 C93.140223,61.5792929 93.0495212,61.7781815 92.8306689,61.8751376 C92.6370687,61.9595666 92.1608845,62.1323715 91.7948136,61.4742714 C91.4940205,60.9445309 91.2289583,60.2447311 91.1176425,59.9595258 C91.0265972,59.735583 90.8910599,59.4651356 90.7495102,59.4651356 C90.7345651,59.4651356 90.7230556,59.4695973 90.6986623,59.4742306 L90.6986623,59.4742306 Z M80.273973,61.4241632 L82.488951,63.2816013 L84.6426023,60.641822 L82.4293421,58.7794073 L80.273973,61.4241632 L80.273973,61.4241632 Z M80.7697405,56.8090539 L82.9797368,58.6659773 L85.1411184,56.0366657 L82.9235636,54.1665289 L80.7697405,56.8090539 L80.7697405,56.8090539 Z M94.914576,50.3037301 L97.514693,51.5595258 L98.9513194,48.4534993 L96.3549817,47.2081714 L94.914576,50.3037301 L94.914576,50.3037301 Z M81.4469115,48.1265943 C82.5483882,50.7368578 84.2153765,53.0013399 86.1309357,54.6672684 C86.3303765,53.3004451 86.5461367,52.3372337 86.7488414,51.6503042 C84.7942873,50.2313134 83.3939072,48.6971765 82.4965095,47.1633828 L81.4469115,48.1265943 L81.4469115,48.1265943 Z M86.385519,44.798341 L88.9870102,46.0433256 L90.4253545,42.9405596 L87.8262683,41.6952317 L86.385519,44.798341 L86.385519,44.798341 Z M73.8260746,32.4351541 C73.8260746,32.4351541 72.2035782,33.6039467 71.5501133,35.1518119 C71.1496857,36.098721 71.1764839,37.1231949 71.4025512,37.6187863 C71.6334284,38.1131765 72.1738596,38.5861163 72.8778289,38.0169069 C73.3706762,37.6187863 73.5864364,37.0610744 73.6934576,36.5843594 C73.7590789,36.3015565 73.781239,36.1230887 73.781239,35.9840897 C73.781239,35.809912 73.7243787,35.6631908 73.5610124,35.7023165 C73.0918713,35.8600203 73.3706762,36.5011316 73.0356981,36.811391 C72.7811148,36.9687516 72.1199196,36.8838078 71.9895358,36.2224472 C71.8610417,35.5602286 72.3628216,34.7089028 72.8178765,34.1451847 C73.273962,33.5799222 74.0756762,32.8401388 74.0756762,32.8401388 C74.0756762,32.8401388 74.6477156,32.3599917 74.4537719,32.1226638 C74.445011,32.1089355 74.4242251,32.1029294 74.4008626,32.1029294 C74.2338889,32.1029294 73.8260746,32.4351541 73.8260746,32.4351541 L73.8260746,32.4351541 Z M89.8117434,30.7187741 C89.6155665,30.9307047 88.6911988,31.9591255 87.8025621,32.9472195 C87.0078911,33.8275463 86.2496382,34.6682327 86.0833516,34.8533931 C85.7038816,35.2815443 85.504269,35.7023165 85.5547734,35.9295198 L85.7839327,37.0790928 C85.8454313,36.8654462 86.0879898,36.475391 86.3554569,36.173197 C86.5461367,35.9612664 87.4703326,34.9278691 88.3622332,33.9488701 C89.1526096,33.0668272 89.9117215,32.2302593 90.0800694,32.0349743 C90.4624598,31.6184922 90.6605263,31.1924003 90.6083041,30.9698303 L90.3731323,29.8115055 C90.3179898,30.0303002 90.0800694,30.4160652 89.8117434,30.7187741 L89.8117434,30.7187741 Z M68.1493129,47.4564819 C68.4676279,46.4350968 69.0420724,45.5185616 70.0421966,44.9443757 C71.682902,44.1659814 72.3257164,46.1569273 72.3257164,46.1569273 C72.2113085,47.5047025 71.2019079,48.2122245 70.0782712,48.2122245 C69.4201681,48.2122245 68.7179167,47.9625411 68.1493129,47.4564819 L68.1493129,47.4564819 Z M80.3602083,15.1199999 C79.2470504,15.1502022 78.3704386,16.0995137 78.4015314,17.2295239 C78.4372624,18.3648538 79.3645504,19.2626843 80.479598,19.2263043 C81.0896016,19.2089723 81.6162902,18.9131276 81.9796126,18.482574 L82.0215278,18.4316077 C82.2596199,20.0668191 81.4884832,21.3732379 79.6933443,22.8850663 C77.8571491,24.4548967 73.5610124,26.5021286 70.5068713,28.9560612 C66.2081579,32.4059815 65.1929167,36.1615279 64.9312902,39.2018303 C64.8192873,40.5588721 65.0142617,42.3426923 65.3793019,43.8179692 C65.8360746,45.6740345 66.4981287,47.0945698 66.4981287,47.0945698 C66.4981287,47.0945698 66.5326572,47.1539446 66.5848794,47.2553624 C66.4757968,49.2677587 66.6757529,52.7823736 67.7933772,55.4372541 C69.295625,58.8612622 71.9952047,61.6645799 75.8680665,60.840539 C79.7770029,59.9080447 80.2140205,53.4598649 80.6596272,48.7517465 C80.7757529,47.9805595 80.8929094,47.8436198 81.1255044,47.6459324 C81.7537171,47.1052092 83.2777814,45.6529273 84.0039108,45.0068394 C84.4532968,44.604772 84.8434174,44.2037342 85.0966265,43.6906392 C85.4195797,43.0675463 85.248655,42.2369845 85.248655,42.2369845 L84.8106067,39.1345616 C84.7022113,39.5757547 84.1708845,40.1928415 83.4234539,40.9552766 C82.6451023,41.7540917 80.5699561,43.5602204 80.3809942,43.7587659 C80.1935782,43.9513052 79.5177814,44.4486127 79.2290132,46.8167434 C78.4788341,53.2570294 77.2287646,56.2966453 74.984068,57.3243797 C74.391758,57.6075258 73.7276425,57.739489 72.9894883,57.7581938 C68.8754423,57.7175237 67.7933772,52.6330784 67.8124452,49.8465779 C67.8157091,49.682868 67.8184576,49.5143532 67.8275621,49.3616259 C68.7833662,50.6670151 70.1940534,51.9619364 71.9355958,51.6925187 C74.7129934,51.2629947 73.8484064,46.5102592 73.4448867,45.4078772 C73.0521893,44.2989743 71.9744189,40.9902838 69.6460636,41.1541653 C67.9960819,41.2677669 67.2275219,43.2293685 66.8775987,44.8904921 C66.5594554,43.577724 66.3897332,42.0387822 66.4928034,40.8365269 C66.7381104,37.9611357 67.7086879,34.3696423 71.834587,30.8323758 C74.7739766,28.3146066 78.1040022,26.5163717 79.9556579,25.0326863 C81.1340936,24.0934994 81.8665789,23.0391664 82.2774854,22.049528 C82.1613596,23.0084493 81.9277339,24.048196 81.4740534,25.2598896 C79.7649781,29.8243758 74.5762537,37.360866 74.5065095,48.011963 C74.5065095,51.2856463 74.8097076,54.1164206 75.3233406,56.5372337 C75.6047222,56.3421203 75.8680665,56.086774 76.1183553,55.780633 C75.7579532,54.0488087 75.5497515,52.1316525 75.5497515,50.0873379 C75.5497515,39.460437 80.7025731,31.9337281 82.3831323,27.3790234 C83.2628363,24.980004 83.2851681,23.2308477 83.2851681,21.5045147 C83.2851681,19.3858957 82.8191192,17.1747824 82.3845066,16.3126455 C81.9143348,15.4862022 81.3311294,15.1199999 80.4586404,15.1199999 L80.3602083,15.1199999 L80.3602083,15.1199999 Z M85.4195797,0.548788557 C84.3852705,1.28428191 83.5220577,2.95295606 83.5280702,5.50127066 C83.5368311,7.06801222 83.9681798,8.9431256 85.1589839,11.0426966 C83.5605373,13.2531235 83.2671308,15.2910888 83.9456762,17.2386189 C84.4611988,18.7192154 84.7229971,19.1037793 84.9581689,19.9918283 C85.5473867,22.2458426 84.8939218,24.9506597 83.1417288,29.1209723 C81.7207346,32.5209559 79.8733735,36.0760693 79.8733735,40.4061449 C79.8824781,41.3997301 79.9644189,42.3656872 80.1028765,43.3146556 C80.267617,43.1507741 80.619258,42.8163185 81.0494042,42.4168251 C80.8379386,39.0249069 82.1702924,35.6123962 83.8075621,32.5480693 C86.1891703,28.0709294 86.4822332,23.516911 86.0240863,21.0245392 C87.6957127,22.8361592 90.514682,25.5444085 92.1608845,28.3221572 C92.7159174,29.257912 93.0495212,30.1427006 93.1311184,31.0436199 C93.2087646,33.2392889 92.5283297,34.8125514 91.1992398,36.3571561 C90.0750877,37.6592848 90.4641776,38.8100591 90.5114181,39.0353747 C90.5966228,39.4060386 91.0563158,40.825201 91.3778947,41.7540917 C92.6252156,39.2804247 96.0662135,37.8871745 97.6263523,35.8310192 C97.9836623,38.3635463 96.1036623,40.7723471 94.7087792,42.3867945 C94.375519,42.7511091 94.0121966,43.1243471 93.6002595,43.5274441 C90.9580556,46.0857117 89.2242434,47.844821 88.3057164,49.4786596 C88.0705446,49.840915 87.6897003,50.65363 87.4990205,51.2796402 C87.2296637,52.062153 86.8857529,53.3903654 86.5980154,55.7291519 C86.3795066,57.1091887 86.1328253,58.7569272 86.0522588,59.4912193 C85.8736038,61.1624675 85.3761184,63.8149456 83.3521637,64.570345 C83.2406762,64.6168496 83.1333114,64.6429333 83.0202778,64.6659282 L83.0202778,64.6753664 C81.0896016,65.1021447 79.1128874,63.4640161 77.675402,60.5180957 C77.3790753,60.7463286 77.0561221,60.9491642 76.7048246,61.1066963 C78.6514766,65.767967 81.580731,67.9100957 84.1464912,67.9100957 C86.0907383,67.9100957 87.6268275,66.9173684 88.1183004,64.0218996 C88.3739145,62.5618955 88.552913,60.9445309 88.7135307,59.374014 C88.7925512,58.6189579 89.1601681,54.351346 89.8388852,52.8034809 C90.6752997,51.0678813 92.5090899,49.3883961 95.2404496,46.5384022 C96.9266776,44.7679671 97.8465789,43.2942347 98.3256835,42.1075953 C99.9153692,39.1580713 97.9462135,32.1442859 97.5638231,30.8835136 C97.5521418,30.8383819 97.5475037,30.8280857 97.5222515,30.8280857 C97.4832566,30.8280857 97.4714035,30.8383819 97.4416849,30.889863 C97.4389364,30.9017036 97.432924,30.910627 97.4269115,30.9193788 C96.723973,32.0804493 95.4682346,33.1390724 94.3011367,34.0049845 C94.9576937,32.178435 94.780413,30.7899896 94.518443,29.6218834 L94.518443,29.61296 C94.5019518,29.5460346 94.4856323,29.4765351 94.4679386,29.4101245 L94.4648465,29.4173318 C93.2831469,24.7636117 88.5840058,20.620241 86.4660855,18.2322042 C83.7122222,15.1381899 84.649989,13.1450132 85.6650585,11.8784065 C85.8555665,12.162239 86.0522588,12.4640898 86.2754057,12.7671419 C90.0204605,17.9107905 97.0742398,26.072433 100.771539,33.847624 C101.71068,35.809912 102.429423,37.7404534 102.824181,39.5798732 C104.280735,47.6320325 98.7321235,55.8202735 90.4133297,53.5180386 L90.4102376,53.5180386 C90.3564693,53.5053399 90.2985782,53.4890375 90.2499635,53.4722204 C90.0245833,54.1879793 89.8117434,55.3300018 89.6021674,56.8898792 C90.8627156,57.431632 92.2290826,57.7581938 93.555424,57.8163675 L93.5567982,57.8187699 C93.6535124,57.8201427 93.7521162,57.82306 93.8484868,57.8264921 C100.683586,57.9019977 106.032928,52.718537 105.048951,41.8398936 C105.048951,41.8398936 104.638388,37.3143614 102.327039,32.5480693 C98.6292251,24.1751827 91.788114,15.8908436 87.5897222,10.5395546 C86.2573684,8.83810415 85.4747222,7.36763224 85.080307,6.09656381 C84.2940534,3.62306842 84.7942873,1.70625535 85.8023136,0.867284981 C86.0194481,0.68195301 86.2905227,0.474484165 86.5373757,0.350586311 C86.6876864,0.27027579 86.6297953,0.0918079669 86.5226023,0.0720735441 C86.5002705,0.0720735441 86.4660855,0.0660674154 86.430011,0.0660674154 C86.2845102,0.0660674154 85.9971162,0.132649642 85.4195797,0.548788557 L85.4195797,0.548788557 Z M77.7386184,18.6478283 C76.6230556,18.6828355 75.743008,19.6269989 75.7804569,20.7715954 C75.8084576,21.9007476 76.7407273,22.7872522 77.8592105,22.758766 C78.9776937,22.7283921 79.8544773,21.7734177 79.8187463,20.642721 C79.7876535,19.531244 78.890943,18.6478283 77.8054423,18.6478283 L77.7386184,18.6478283 L77.7386184,18.6478283 Z" id="Fill-35"></path>
                </g>
            </g>
        </g>
    </g>
</svg>